<svg xmlns="http://www.w3.org/2000/svg" fill="white" viewBox="0 0 24 24">
  <path d="M12 .5C5.65.5.5 5.65.5 12c0 5.1 3.3 9.4 7.9 10.9.6.1.8-.3.8-.6v-2.2c-3.2.7-3.9-1.4-3.9-1.4-.5-1.3-1.3-1.6-1.3-1.6-1.1-.7.1-.7.1-.7 1.2.1 1.9 1.3 1.9 1.3 1.1 1.9 2.9 1.4 3.6 1.1.1-.8.4-1.4.7-1.7-2.6-.3-5.3-1.3-5.3-5.7 0-1.3.5-2.3 1.3-3.2-.1-.3-.6-1.6.1-3.3 0 0 1-.3 3.3 1.2a11.5 11.5 0 0 1 6 0C17.7 3.7 18.7 4 18.7 4c.7 1.7.2 3 .1 3.3.8.9 1.3 2 1.3 3.2 0 4.4-2.7 5.4-5.3 5.7.4.3.8 1 .8 2v3c0 .3.2.7.8.6A11.5 11.5 0 0 0 23.5 12C23.5 5.65 18.35.5 12 .5z"></path>
</svg>